<svg id="Capa_1" data-name="Capa 1" xmlns="http://www.w3.org/2000/svg" viewBox="0 0 32 32"><defs><style>.cls-1{fill:#242424;}.cls-2{fill:#3eb1c8;}.cls-3{fill:#fff;}</style></defs><title>favicon</title><circle class="cls-1" cx="16" cy="16" r="16"/><path class="cls-2" d="M19.57,23,16,12.24,12.43,23l.31-.21a5.77,5.77,0,0,1,2.07-.86v4.63h2.38V21.88a5.77,5.77,0,0,1,2.07.86Zm-3.74-1.19a1.93,1.93,0,0,1,.34,0Z"/><path class="cls-3" d="M27.89,9.86,23.14,25.33l-2.38,1.18L16,13.43,11.24,26.51,8.86,25.33,4.11,10,6.49,7.62,10.19,23,16,7.49h0L22,23.08,25.51,7.49Z"/></svg>