<svg id="Opción_3" data-name="Opción 3" xmlns="http://www.w3.org/2000/svg" viewBox="0 0 180.3 200.3"><defs><style>.cls-1{fill:#242424;}.cls-2{fill:#3eb1c8;}</style></defs><title>logo-negro</title><path class="cls-1" d="M95.49,174.38l12.77,4.25v6l-22-7.78V171.8l22-7.8v6Z"/><path class="cls-1" d="M97.51,189.48l-11.23-4.25v-6l22,7.78v5.08l-22,7.8v-6Z"/><path class="cls-1" d="M33.55,183.14,38,155.39H47.5l-8.42,44.16h-9.6l-5.52-26-5.47,26H8.87L.42,155.39H9.94l4.46,27.72L20,155.39h8Z"/><path class="cls-1" d="M61.87,199.55H52.64V167.44h9.23Z"/><path class="cls-1" d="M78.65,199.55H69.41v-44h9.24Z"/><path class="cls-1" d="M125.66,199.55h-9.23V167.44h9.23Z"/><path class="cls-1" d="M143.48,158.87v7.91h4.72v6.3h-4.72v16a4.35,4.35,0,0,0,.57,2.62,2.7,2.7,0,0,0,2.2.72,9.24,9.24,0,0,0,2.17-.21l-.06,6.54a15.4,15.4,0,0,1-5.07.81q-8.91,0-9-9.35V173.08h-4.06v-6.3h4.06v-7.91Z"/><path class="cls-1" d="M167.45,199.55q-7.09,0-11.06-3.8t-4-10.86v-2.51q0-7.47,3.65-11.53t10.43-4q6.63,0,10,3.8t3.42,11.26v4.06H161.59a8,8,0,0,0,1.73,5.14,6.2,6.2,0,0,0,4.71,1.63,11,11,0,0,0,7.71-2.83l3.61,5a11.9,11.9,0,0,1-4.91,3.4A18.65,18.65,0,0,1,167.45,199.55Zm-5.79-19.38h9.2v-.76a8,8,0,0,0-1-4.29,3.75,3.75,0,0,0-3.38-1.46,4,4,0,0,0-3.5,1.54A9.88,9.88,0,0,0,161.66,180.17Z"/><path class="cls-2" d="M115.89,160.53a5,5,0,1,1,10.09,0,5,5,0,0,1-1.36,3.59,5.46,5.46,0,0,1-7.37,0A5,5,0,0,1,115.89,160.53Z"/><path class="cls-2" d="M52.49,160.53a5,5,0,1,1,10.09,0,5,5,0,0,1-1.36,3.59,5.46,5.46,0,0,1-7.37,0A5,5,0,0,1,52.49,160.53Z"/><path class="cls-2" d="M117.15,119.15l-27-81-27,81,2.33-1.56a44.59,44.59,0,0,1,15.67-6.54v35.1h18v-35.1a44.59,44.59,0,0,1,15.67,6.54Zm-28.31-9q1.3,0,2.61,0Z"/><path class="cls-1" d="M180.15,20.15l-36,117-18,9-36-99-36,99-18-9-36-116,18-18,28,116,44-117h0l45,118,27-118Z"/></svg>