<svg id="Capa_1" data-name="Capa 1" xmlns="http://www.w3.org/2000/svg" viewBox="0 0 360 144"><defs><style>.cls-1,.cls-2{fill:#fff;}.cls-1{stroke:#fff;stroke-miterlimit:10;stroke-width:0.25px;}</style></defs><title>logo-horizontal-negativo</title><path class="cls-1" d="M189.6,66.16l23,7.65V84.66L173,70.66V61.51l39.56-14V58.32Z"/><path class="cls-1" d="M193.23,93.33,173,85.68V74.84l39.56,14V98L173,112V101.17Z"/><path class="cls-2" d="M78.15,81.92,86.22,32h17L88.1,111.44H70.84l-10-46.82-9.83,46.82H33.75L18.54,32H35.68l8,49.87L53.7,32H68.15Z"/><path class="cls-2" d="M129.1,111.44H112.49V53.68H129.1Z"/><path class="cls-2" d="M159.29,111.44H142.68V32.27h16.61Z"/><path class="cls-2" d="M243.88,111.44H227.27V53.68h16.61Z"/><path class="cls-2" d="M275.94,38.25V52.48h8.48V63.82h-8.48V92.6q0,3.42,1,4.71c.68.86,2,1.29,4,1.29a16.77,16.77,0,0,0,3.92-.38L284.71,110a27.73,27.73,0,0,1-9.12,1.45q-16,0-16.21-16.82V63.82h-7.31V52.48h7.31V38.25Z"/><path class="cls-2" d="M319.06,111.44q-12.76,0-19.89-6.83T292,85.08V80.56q0-13.44,6.55-20.74t18.78-7.3q11.94,0,18,6.84t6.14,20.26v7.29H308.53q.35,6.33,3.1,9.26t8.48,2.93A19.7,19.7,0,0,0,334,94l6.5,9a21.3,21.3,0,0,1-8.84,6.12A33.23,33.23,0,0,1,319.06,111.44ZM308.64,76.57H325.2V75.2c-.08-3.39-.7-6-1.87-7.72s-3.2-2.62-6.09-2.62-5,.93-6.29,2.78S308.88,72.47,308.64,76.57Z"/><path class="cls-2" d="M226.31,41.24a9.08,9.08,0,1,1,18.15,0A9,9,0,0,1,242,47.69a9.84,9.84,0,0,1-13.26,0A9,9,0,0,1,226.31,41.24Z"/><path class="cls-2" d="M112.23,41.24a9.08,9.08,0,1,1,18.16,0,9,9,0,0,1-2.45,6.45,9.84,9.84,0,0,1-13.26,0A9,9,0,0,1,112.23,41.24Z"/></svg>