<svg id="Capa_1" data-name="Capa 1" xmlns="http://www.w3.org/2000/svg" viewBox="0 0 325 83"><defs><style>.cls-1{fill:#fff;}.cls-2{fill:#3eb1c8;}</style></defs><title>logo-horizontal-negro</title><path class="cls-1" d="M171.6,36.16l23,7.65V54.66L155,40.66V31.51l39.56-14V28.32Z"/><path class="cls-1" d="M175.23,63.33,155,55.68V44.84l39.56,14V68L155,82V71.17Z"/><path class="cls-1" d="M60.15,51.92,68.22,2h17L70.1,81.44H52.84l-10-46.82L33.06,81.44H15.75L.54,2H17.68l8,49.87L35.7,2H50.15Z"/><path class="cls-1" d="M111.1,81.44H94.49V23.68H111.1Z"/><path class="cls-1" d="M141.29,81.44H124.68V2.27h16.61Z"/><path class="cls-1" d="M225.88,81.44H209.27V23.68h16.61Z"/><path class="cls-1" d="M257.94,8.25V22.48h8.48V33.82h-8.48V62.6q0,3.42,1,4.71c.68.86,2,1.29,4,1.29a16.77,16.77,0,0,0,3.92-.38L266.71,80a27.73,27.73,0,0,1-9.12,1.45q-16,0-16.21-16.82V33.82h-7.31V22.48h7.31V8.25Z"/><path class="cls-1" d="M301.06,81.44q-12.76,0-19.89-6.83T274,55.08V50.56q0-13.44,6.55-20.74t18.78-7.3q11.94,0,18,6.84t6.14,20.26v7.29H290.53q.35,6.33,3.1,9.26t8.48,2.93A19.7,19.7,0,0,0,316,64l6.5,9a21.3,21.3,0,0,1-8.84,6.12A33.23,33.23,0,0,1,301.06,81.44ZM290.64,46.57H307.2V45.2c-.08-3.39-.7-6-1.87-7.72s-3.2-2.62-6.09-2.62-5,.93-6.29,2.78S290.88,42.47,290.64,46.57Z"/><path class="cls-2" d="M208.31,11.24a8.82,8.82,0,0,1,2.47-6.46,9.93,9.93,0,0,1,13.2,0,8.83,8.83,0,0,1,2.48,6.46A9,9,0,0,1,224,17.69a9.84,9.84,0,0,1-13.26,0A9,9,0,0,1,208.31,11.24Z"/><path class="cls-2" d="M94.23,11.24a8.83,8.83,0,0,1,2.48-6.46,9.93,9.93,0,0,1,13.2,0,8.83,8.83,0,0,1,2.48,6.46,9,9,0,0,1-2.45,6.45,9.84,9.84,0,0,1-13.26,0A9,9,0,0,1,94.23,11.24Z"/></svg>